# xmcd
#
# Track frame offsets:
#	150
#	17582
#	34709
#	50487
#	68635
#	85555
#	102350
#	116770
#	136615
#	157343
#	174930
#	189978
#	204767
#	220194
#
# Disc length: 3169 seconds
#
# Revision: 0
# Processed by: cddbd v1.5.2PL0 Copyright (c) Steve Scherf et al.
# Submitted via: dBpowerAMP V4.0
#
DISCID=af0c5f0e
DTITLE=varios - paixao sertaneja
DYEAR=1900
DGENRE=sertanejo
TTITLE0=india
TTITLE1=viajante solitario
TTITLE2=loucura demais
TTITLE3=faz de conta
TTITLE4=cuida de mim
TTITLE5=por causa dela
TTITLE6=boneca cobiçada
TTITLE7=cara metade
TTITLE8=luar do sertão
TTITLE9=cabocla tereza
TTITLE10=a vaca já foi pro brejo
TTITLE11=chico mineiro
TTITLE12=dormi na praça
TTITLE13=quem será seu outro amor
EXTD=
EXTT0=
EXTT1=
EXTT2=
EXTT3=
EXTT4=
EXTT5=
EXTT6=
EXTT7=
EXTT8=
EXTT9=
EXTT10=
EXTT11=
EXTT12=
EXTT13=
PLAYORDER=
